<?xml version="1.0" encoding="utf-8"?>
<!-- Generator: Adobe Illustrator 22.1.0, SVG Export Plug-In . SVG Version: 6.00 Build 0)  -->
<svg version="1.1" id="Layer_3" xmlns="http://www.w3.org/2000/svg" xmlns:xlink="http://www.w3.org/1999/xlink" x="0px" y="0px"
	 viewBox="0 0 512 512" style="enable-background:new 0 0 512 512;" xml:space="preserve">
<style type="text/css">
	.st0{fill:#4472B2;}
	.st1{fill:#8892A0;}
	.st2{fill:#FFFFFF;}
	.st3{fill:#E47C6E;}
	.st4{fill:none;}
	.st5{enable-background:new    ;}
	.st6{fill:#B7B6B6;}
</style>
<path class="st0" d="M112,168h288v176H112V168z"/>
<path class="st1" d="M184,168l32-32h80l32,32"/>
<circle class="st2" cx="352" cy="216" r="16"/>
<circle class="st2" cx="256" cy="256" r="56"/>
<path class="st3" d="M256,16C123.4,16,16,123.4,16,256s107.4,240,240,240s240-107.4,240-240S388.6,16,256,16z M256,464
	c-114.9,0-208-93.1-208-208c0-49.3,17.1-94.6,45.8-130.2l292.4,292.4C350.6,446.9,305.3,464,256,464z M418.2,386.2L125.8,93.8
	C161.4,65.1,206.7,48,256,48c114.9,0,208,93.1,208,208C464,305.3,446.9,350.6,418.2,386.2z"/>
<rect x="34.5" y="182" class="st4" width="443" height="216"/>
<g class="st5">
	<path class="st6" d="M58.7,182H72v60.7H58.7V182z"/>
	<path class="st6" d="M83.5,182H103l8.6,37.5l9.6-37.5h19v60.7h-12.5v-50.8l-12.4,50.8h-9.7l-11.3-50.8v50.8H83.5V182z"/>
	<path class="st6" d="M162.4,182h13.4l17.3,60.7h-13.6l-3-12.5h-17.1l-3,12.5h-12.2L162.4,182z M174,219.8l-6.1-24.8l-5.9,24.8H174z
		"/>
	<path class="st6" d="M218.6,210.3h21.1v32.3H234l-1.7-6.9c-3.3,5.2-8.1,7.9-14.7,7.9c-6.9,0-12.4-2.7-16.4-8.2
		c-4-5.4-6.1-12.7-6.1-21.9c0-10,2-17.9,6-23.7c4-5.8,9.9-8.7,17.7-8.7c12.4,0,19.4,6.9,20.9,20.8l-12,2c-0.8-7.9-3.7-11.9-8.6-11.9
		c-3,0-5.4,1.5-7.2,4.4c-1.8,2.9-2.7,8.5-2.7,16.7c0,7.3,0.9,12.4,2.6,15.3c1.7,3,4.3,4.4,7.7,4.4c5.4,0,8.1-4,8.2-12h-9.1V210.3z"
		/>
	<path class="st6" d="M250.1,182h36.9v10.4h-23.5v14.1h18.3v10.4h-18.3v14.9h23.5v10.8h-36.9V182z"/>
	<path class="st6" d="M293,182h14.8l15.6,37.7V182h10.3v60.7h-11.9l-18.5-43.9v43.9H293V182z"/>
	<path class="st6" d="M361.1,182h14.8l15.6,37.7V182h10.3v60.7h-11.9l-18.5-43.9v43.9h-10.3V182z"/>
	<path class="st6" d="M454.6,212.3c0,20.9-7.3,31.3-22,31.3c-7.3,0-12.8-2.7-16.5-8c-3.7-5.3-5.6-13.1-5.6-23.3
		c0-20.8,7.3-31.2,22-31.2c7.2,0,12.6,2.6,16.4,7.8C452.7,194.1,454.6,202,454.6,212.3z M440.6,212.3c0-8.2-0.6-13.6-1.9-16.3
		c-1.3-2.7-3.3-4.1-6.1-4.1c-2.8,0-4.8,1.4-6,4.1c-1.3,2.7-1.9,8.2-1.9,16.3c0,8,0.6,13.4,1.9,16.2c1.3,2.8,3.3,4.2,6.1,4.2
		c2.8,0,4.8-1.3,6.1-4C439.9,226,440.6,220.6,440.6,212.3z"/>
</g>
<g class="st5">
	<path class="st6" d="M47.1,291.2h14.4c6.2,0,11.3,0.8,15.2,2.5c3.9,1.7,7,4.8,9.4,9.3c2.3,4.5,3.5,10.6,3.5,18.3
		c0,5.5-0.7,10.3-2.1,14.5c-1.4,4.2-3.3,7.5-5.6,10c-2.3,2.4-4.9,4.1-7.8,4.9c-2.9,0.8-6.5,1.2-10.9,1.2h-16V291.2z M60.4,301.6
		v39.9h2.3c3.1,0,5.5-0.6,7.2-1.8c1.7-1.2,3-3.3,4.1-6.2c1-3,1.5-7.2,1.5-12.8c0-5.2-0.6-9.1-1.7-11.9c-1.1-2.8-2.5-4.7-4.2-5.7
		s-4-1.5-6.9-1.5H60.4z"/>
	<path class="st6" d="M98.2,291.2h13.3v60.7H98.2V291.2z"/>
	<path class="st6" d="M160.1,304.4l-11,4.2c-1.6-5-4.4-7.5-8.6-7.5c-2,0-3.5,0.6-4.6,1.7c-1.1,1.1-1.7,2.4-1.7,3.9
		c0,1.7,0.7,3.1,2,4.1c1.3,1,4.2,2.4,8.5,4c3.9,1.5,7,2.9,9.2,4.3c2.2,1.4,4,3.4,5.4,5.8c1.4,2.4,2.1,5.3,2.1,8.5
		c0,5.7-1.9,10.3-5.8,13.9c-3.9,3.6-9.1,5.4-15.7,5.4c-11,0-18-5.6-21.1-16.7l11.6-3.3c1.4,6.1,4.7,9.2,9.7,9.2
		c2.3,0,4.2-0.6,5.6-1.8c1.4-1.2,2.2-2.8,2.2-4.7c0-1.5-0.5-2.8-1.5-4c-1-1.2-3.3-2.4-6.9-3.7c-4.7-1.7-8.1-3.2-10.4-4.5
		c-2.3-1.3-4.2-3.3-5.6-5.8c-1.5-2.5-2.2-5.4-2.2-8.6c0-5.5,1.8-9.9,5.3-13.4c3.5-3.5,8.2-5.2,13.9-5.2
		C150.9,290.3,157.5,295,160.1,304.4z"/>
	<path class="st6" d="M169.6,291.2H187c5.3,0,9.4,0.4,12.3,1.3c2.9,0.9,5.4,2.9,7.4,6c2,3.1,3,7,3,11.6c0,4.4-0.8,8.1-2.4,11
		c-1.6,2.9-3.8,5-6.6,6.3c-2.8,1.3-7.2,1.9-13,1.9h-4.7v22.4h-13.3V291.2z M182.9,301.1v18h4.1c3.6,0,6-0.8,7-2.5
		c1.1-1.7,1.6-3.9,1.6-6.6c0-2.3-0.4-4.1-1.2-5.5c-0.8-1.4-1.8-2.3-2.8-2.7c-1.1-0.4-2.6-0.6-4.6-0.6H182.9z"/>
	<path class="st6" d="M257.9,321.5c0,20.9-7.3,31.3-22,31.3c-7.3,0-12.8-2.7-16.5-8c-3.7-5.3-5.6-13.1-5.6-23.3
		c0-20.8,7.3-31.2,22-31.2c7.2,0,12.6,2.6,16.4,7.8C256,303.3,257.9,311.2,257.9,321.5z M243.9,321.5c0-8.2-0.6-13.6-1.9-16.3
		c-1.3-2.7-3.3-4.1-6.1-4.1c-2.8,0-4.8,1.4-6,4.1c-1.3,2.7-1.9,8.2-1.9,16.3c0,8,0.6,13.4,1.9,16.2c1.3,2.8,3.3,4.2,6.1,4.2
		c2.8,0,4.8-1.3,6.1-4C243.2,335.2,243.9,329.8,243.9,321.5z"/>
	<path class="st6" d="M266.7,291.2h14.8l15.6,37.7v-37.7h10.3v60.7h-11.9L277,308v43.9h-10.3V291.2z"/>
	<path class="st6" d="M318.4,291.2h13.3v60.7h-13.3V291.2z"/>
	<path class="st6" d="M343.2,291.2h20.7c4.9,0,8.5,0.4,11,1.2s4.5,2.5,6.2,5.1c1.7,2.6,2.5,5.9,2.5,9.7c0,6.8-2.9,11.1-8.7,13.1
		c6.9,2.4,10.3,7.4,10.3,14.9c0,3.9-0.9,7.3-2.8,10c-1.9,2.7-4.2,4.5-6.9,5.4c-2.7,0.9-6.6,1.4-11.7,1.4h-20.7V291.2z M356,315.7
		h4.3c4.3,0,7-0.8,8.1-2.3c1.1-1.5,1.7-3.3,1.7-5.3c0-1.8-0.6-3.5-1.7-4.9c-1.1-1.4-3.5-2.2-7.1-2.2H356V315.7z M356,341.5h6.5
		c6.1,0,9.2-2.6,9.2-7.9c0-2.9-0.8-5-2.3-6.2c-1.5-1.2-3.8-1.8-6.9-1.8H356V341.5z"/>
	<path class="st6" d="M394.3,291.2h13.3v49.3h19.6v11.4h-32.9V291.2z"/>
	<path class="st6" d="M433,291.2h36.9v10.4h-23.5v14.1h18.3v10.4h-18.3v14.9h23.5v10.8H433V291.2z"/>
</g>
</svg>
