<?xml version="1.0"?>
<svg xmlns="http://www.w3.org/2000/svg" id="Capa_1" enable-background="new 0 0 511 511" height="512px" viewBox="0 0 511 511" width="512px" class=""><g><g id="XMLID_240_"><path id="XMLID_245_" d="m323.833 130.167h21.069v18h-21.069z" data-original="#000000" class="active-path" data-old_color="#000000" fill="#F40404"/><path id="XMLID_255_" d="m255.5 194.833c33.452 0 60.667 27.215 60.667 60.667 0 11.296-3.113 21.876-8.512 30.942l46.392 46.392h17.856v-154.667h-172.524l25.179 25.179c9.066-5.4 19.646-8.513 30.942-8.513z" data-original="#000000" class="active-path" data-old_color="#000000" fill="#F40404"/><path id="XMLID_752_" d="m255.5 286.167c2.877 0 5.66-.407 8.302-1.151l-37.817-37.817c-.744 2.643-1.151 5.425-1.151 8.302-.001 16.909 13.756 30.666 30.666 30.666z" data-original="#000000" class="active-path" data-old_color="#000000" fill="#F40404"/><path id="XMLID_757_" d="m255.5 224.833c-2.877 0-5.66.407-8.302 1.151l37.817 37.817c.744-2.643 1.151-5.425 1.151-8.302.001-16.909-13.756-30.666-30.666-30.666z" data-original="#000000" class="active-path" data-old_color="#000000" fill="#F40404"/><path id="XMLID_758_" d="m255.5 316.167c-33.452 0-60.667-27.215-60.667-60.667 0-11.296 3.113-21.876 8.512-30.942l-46.392-46.392h-17.856v154.667h172.523l-25.179-25.179c-9.065 5.4-19.645 8.513-30.941 8.513z" data-original="#000000" class="active-path" data-old_color="#000000" fill="#F40404"/><path id="XMLID_759_" d="m169.379 148.167h124.454v-48h81.069v48h27v214.667h-17.856l62.409 62.409c41.723-46.815 64.545-106.521 64.545-169.743 0-68.247-26.577-132.408-74.834-180.666-48.258-48.257-112.419-74.834-180.666-74.834-63.222 0-122.928 22.822-169.743 64.544z" data-original="#000000" class="active-path" data-old_color="#000000" fill="#F40404"/><path id="XMLID_760_" d="m341.621 362.833h-232.523v-214.666h17.856l-62.41-62.41c-41.722 46.815-64.544 106.521-64.544 169.743 0 68.247 26.577 132.408 74.834 180.666 48.258 48.257 112.419 74.834 180.666 74.834 63.222 0 122.928-22.822 169.743-64.544z" data-original="#000000" class="active-path" data-old_color="#000000" fill="#F40404"/></g></g> </svg>
